<svg aria-hidden="true" style="position: absolute; width: 0; height: 0; overflow: hidden;" version="1.1" xmlns="http://www.w3.org/2000/svg" xmlns:xlink="http://www.w3.org/1999/xlink">
<defs>
<symbol id="icon-facebook" viewBox="0 0 16 28">
<path d="M14.984 0.187v4.125h-2.453c-1.922 0-2.281 0.922-2.281 2.25v2.953h4.578l-0.609 4.625h-3.969v11.859h-4.781v-11.859h-3.984v-4.625h3.984v-3.406c0-3.953 2.422-6.109 5.953-6.109 1.687 0 3.141 0.125 3.563 0.187z"></path>
</symbol>
<symbol id="icon-logo" viewBox="0 0 144 32">
<path fill="#ffffff"  d="M7.526 18.31l-1.385 2.606v8.756h-4.48v-28.509h4.48v12.422l5.865-12.422h4.48l-6.231 12.707 6.231 15.802h-4.602l-4.358-11.363zM22.811 23.116c0 1.032 0.21 1.758 0.631 2.179s0.984 0.631 1.69 0.631 1.269-0.21 1.69-0.631c0.421-0.421 0.631-1.147 0.631-2.179v-15.395c0-1.032-0.21-1.758-0.631-2.179s-0.984-0.631-1.69-0.631-1.269 0.21-1.69 0.631c-0.421 0.421-0.631 1.147-0.631 2.179v15.395zM18.331 8.006c0-2.308 0.584-4.080 1.751-5.315s2.851-1.853 5.050-1.853c2.199 0 3.883 0.618 5.050 1.853s1.751 3.007 1.751 5.315v14.825c0 2.308-0.584 4.079-1.751 5.315s-2.851 1.853-5.050 1.853-3.883-0.618-5.050-1.853c-1.167-1.235-1.751-3.007-1.751-5.315v-14.825zM39.276 9.024v20.649h-4.032v-28.509h5.62l4.602 17.065v-17.065h3.991v28.509h-4.602l-5.58-20.649zM52.565 8.006c0-2.308 0.55-4.080 1.649-5.315s2.749-1.853 4.948-1.853 3.849 0.618 4.948 1.853c1.1 1.235 1.649 3.007 1.649 5.315v0.896h-4.236v-1.181c0-1.032-0.197-1.758-0.591-2.179s-0.943-0.631-1.649-0.631-1.256 0.21-1.649 0.631c-0.394 0.421-0.591 1.147-0.591 2.179 0 0.977 0.217 1.839 0.652 2.586s0.977 1.453 1.629 2.118c0.652 0.665 1.351 1.33 2.098 1.996s1.446 1.392 2.097 2.179c0.652 0.787 1.195 1.683 1.629 2.688s0.652 2.186 0.652 3.543c0 2.308-0.563 4.079-1.69 5.315s-2.79 1.853-4.989 1.853-3.862-0.618-4.989-1.853c-1.127-1.235-1.69-3.007-1.69-5.315v-1.751h4.236v2.036c0 1.032 0.211 1.751 0.631 2.159s0.984 0.611 1.69 0.611 1.269-0.204 1.69-0.611c0.421-0.407 0.631-1.127 0.631-2.159 0-0.977-0.217-1.839-0.652-2.586s-0.977-1.453-1.629-2.118c-0.652-0.665-1.351-1.33-2.097-1.996s-1.446-1.392-2.098-2.179c-0.652-0.787-1.195-1.683-1.629-2.688s-0.652-2.186-0.652-3.543zM67.523 1.164h13.847v4.073h-4.684v24.436h-4.48v-24.436h-4.684v-4.073zM93.153 29.673c-0.054-0.19-0.109-0.367-0.163-0.529s-0.102-0.367-0.143-0.611c-0.041-0.244-0.068-0.557-0.081-0.937s-0.020-0.855-0.020-1.425v-4.48c0-1.331-0.231-2.267-0.692-2.81s-1.208-0.815-2.24-0.815h-1.548v11.607h-4.48v-28.509h6.761c2.335 0 4.025 0.543 5.071 1.629s1.568 2.729 1.568 4.928v2.24c0 2.932-0.977 4.86-2.932 5.783 1.14 0.462 1.921 1.215 2.342 2.26s0.631 2.315 0.631 3.808v4.399c0 0.706 0.027 1.324 0.081 1.853s0.19 1.066 0.407 1.609h-4.561zM88.265 5.236v8.756h1.751c0.842 0 1.5-0.217 1.975-0.652s0.713-1.222 0.713-2.362v-2.81c0-1.032-0.183-1.778-0.55-2.24s-0.943-0.692-1.731-0.692h-2.159zM104.894 1.164v21.993c0 1.032 0.21 1.751 0.631 2.159s0.984 0.611 1.69 0.611c0.706 0 1.269-0.204 1.69-0.611s0.631-1.127 0.631-2.159v-21.993h4.236v21.708c0 2.308-0.563 4.079-1.69 5.315s-2.79 1.853-4.989 1.853-3.862-0.618-4.989-1.853c-1.127-1.235-1.69-3.007-1.69-5.315v-21.708h4.48zM129.528 1.164h13.847v4.073h-4.684v24.436h-4.48v-24.436h-4.684v-4.073z"></path>
<path fill="#00a4e5" style="fill: var(--color1, #00a4e5)" d="M115.9 15.979l11.636-14.545v29.091l-11.636-14.545z"></path>
</symbol>
<symbol id="icon-logo-1" viewBox="0 0 144 32">
<path fill="#000000"  d="M7.526 18.31l-1.385 2.606v8.756h-4.48v-28.509h4.48v12.422l5.865-12.422h4.48l-6.231 12.707 6.231 15.802h-4.602l-4.358-11.363zM22.811 23.116c0 1.032 0.21 1.758 0.631 2.179s0.984 0.631 1.69 0.631 1.269-0.21 1.69-0.631c0.421-0.421 0.631-1.147 0.631-2.179v-15.395c0-1.032-0.21-1.758-0.631-2.179s-0.984-0.631-1.69-0.631-1.269 0.21-1.69 0.631c-0.421 0.421-0.631 1.147-0.631 2.179v15.395zM18.331 8.006c0-2.308 0.584-4.080 1.751-5.315s2.851-1.853 5.050-1.853c2.199 0 3.883 0.618 5.050 1.853s1.751 3.007 1.751 5.315v14.825c0 2.308-0.584 4.079-1.751 5.315s-2.851 1.853-5.050 1.853-3.883-0.618-5.050-1.853c-1.167-1.235-1.751-3.007-1.751-5.315v-14.825zM39.276 9.024v20.649h-4.032v-28.509h5.62l4.602 17.065v-17.065h3.991v28.509h-4.602l-5.58-20.649zM52.565 8.006c0-2.308 0.55-4.080 1.649-5.315s2.749-1.853 4.948-1.853 3.849 0.618 4.948 1.853c1.1 1.235 1.649 3.007 1.649 5.315v0.896h-4.236v-1.181c0-1.032-0.197-1.758-0.591-2.179s-0.943-0.631-1.649-0.631-1.256 0.21-1.649 0.631c-0.394 0.421-0.591 1.147-0.591 2.179 0 0.977 0.217 1.839 0.652 2.586s0.977 1.453 1.629 2.118c0.652 0.665 1.351 1.33 2.098 1.996s1.446 1.392 2.097 2.179c0.652 0.787 1.195 1.683 1.629 2.688s0.652 2.186 0.652 3.543c0 2.308-0.563 4.079-1.69 5.315s-2.79 1.853-4.989 1.853-3.862-0.618-4.989-1.853c-1.127-1.235-1.69-3.007-1.69-5.315v-1.751h4.236v2.036c0 1.032 0.211 1.751 0.631 2.159s0.984 0.611 1.69 0.611 1.269-0.204 1.69-0.611c0.421-0.407 0.631-1.127 0.631-2.159 0-0.977-0.217-1.839-0.652-2.586s-0.977-1.453-1.629-2.118c-0.652-0.665-1.351-1.33-2.097-1.996s-1.446-1.392-2.098-2.179c-0.652-0.787-1.195-1.683-1.629-2.688s-0.652-2.186-0.652-3.543zM67.523 1.164h13.847v4.073h-4.684v24.436h-4.48v-24.436h-4.684v-4.073zM93.153 29.673c-0.054-0.19-0.109-0.367-0.163-0.529s-0.102-0.367-0.143-0.611c-0.041-0.244-0.068-0.557-0.081-0.937s-0.020-0.855-0.020-1.425v-4.48c0-1.331-0.231-2.267-0.692-2.81s-1.208-0.815-2.24-0.815h-1.548v11.607h-4.48v-28.509h6.761c2.335 0 4.025 0.543 5.071 1.629s1.568 2.729 1.568 4.928v2.24c0 2.932-0.977 4.86-2.932 5.783 1.14 0.462 1.921 1.215 2.342 2.26s0.631 2.315 0.631 3.808v4.399c0 0.706 0.027 1.324 0.081 1.853s0.19 1.066 0.407 1.609h-4.561zM88.265 5.236v8.756h1.751c0.842 0 1.5-0.217 1.975-0.652s0.713-1.222 0.713-2.362v-2.81c0-1.032-0.183-1.778-0.55-2.24s-0.943-0.692-1.731-0.692h-2.159zM104.894 1.164v21.993c0 1.032 0.21 1.751 0.631 2.159s0.984 0.611 1.69 0.611c0.706 0 1.269-0.204 1.69-0.611s0.631-1.127 0.631-2.159v-21.993h4.236v21.708c0 2.308-0.563 4.079-1.69 5.315s-2.79 1.853-4.989 1.853-3.862-0.618-4.989-1.853c-1.127-1.235-1.69-3.007-1.69-5.315v-21.708h4.48zM129.528 1.164h13.847v4.073h-4.684v24.436h-4.48v-24.436h-4.684v-4.073z"></path>
<path fill="#00a4e5" style="fill: var(--color1, #00a4e5)" d="M115.9 15.979l11.636-14.545v29.091l-11.636-14.545z"></path>
</symbol>
<symbol id="icon-twitter" viewBox="0 0 32 32">
<path fill="#f4f4fd" style="fill: var(--color3, #f4f4fd)" d="M32 6.078c-1.1 0.494-2.376 0.858-3.712 1.029l-0.068 0.007c1.36-0.817 2.381-2.078 2.873-3.58l0.013-0.046c-1.197 0.723-2.591 1.274-4.076 1.574l-0.084 0.014c-1.2-1.279-2.901-2.076-4.788-2.076-3.623 0-6.56 2.937-6.56 6.56v0c0 0.52 0.044 1.020 0.152 1.496-5.468-0.276-10.278-2.878-13.495-6.828l-0.027-0.034c-0.563 0.949-0.895 2.091-0.895 3.311 0 2.264 1.145 4.261 2.888 5.442l0.023 0.015c-1.092-0.030-2.109-0.325-2.997-0.823l0.033 0.017v0.072c0.004 3.164 2.237 5.806 5.213 6.438l0.043 0.008c-0.501 0.137-1.075 0.216-1.669 0.216-0.018 0-0.036-0-0.054-0l0.003 0c-0.031 0.001-0.067 0.001-0.103 0.001-0.403 0-0.796-0.041-1.176-0.119l0.037 0.006c0.873 2.624 3.273 4.496 6.121 4.57l0.009 0c-2.214 1.744-5.044 2.798-8.12 2.798-0.005 0-0.010 0-0.015 0h0.001c-0.538 0-1.054-0.024-1.57-0.090 2.826 1.846 6.287 2.944 10.004 2.944 0.021 0 0.042-0 0.063-0h-0.003c12.072 0 18.672-10 18.672-18.668 0-0.29-0.010-0.57-0.024-0.848 1.299-0.937 2.391-2.066 3.258-3.359l0.030-0.047z"></path>
</symbol>
<symbol id="icon-office" viewBox="0 0 32 32">
<path d="M0 32h16v-32h-16v32zM10 4h4v4h-4v-4zM10 12h4v4h-4v-4zM10 20h4v4h-4v-4zM2 4h4v4h-4v-4zM2 12h4v4h-4v-4zM2 20h4v4h-4v-4zM18 10h14v2h-14zM18 32h4v-8h6v8h4v-18h-14z"></path>
</symbol>
<symbol id="icon-newspaper" viewBox="0 0 32 32">
<path d="M28 8v-4h-28v22c0 1.105 0.895 2 2 2h27c1.657 0 3-1.343 3-3v-17h-4zM26 26h-24v-20h24v20zM4 10h20v2h-20zM16 14h8v2h-8zM16 18h8v2h-8zM16 22h6v2h-6zM4 14h10v10h-10z"></path>
</symbol>
<symbol id="icon-books" viewBox="0 0 36 32">
<path d="M7 4h-6c-0.55 0-1 0.45-1 1v22c0 0.55 0.45 1 1 1h6c0.55 0 1-0.45 1-1v-22c0-0.55-0.45-1-1-1zM6 10h-4v-2h4v2z"></path>
<path d="M17 4h-6c-0.55 0-1 0.45-1 1v22c0 0.55 0.45 1 1 1h6c0.55 0 1-0.45 1-1v-22c0-0.55-0.45-1-1-1zM16 10h-4v-2h4v2z"></path>
<path d="M23.909 5.546l-5.358 2.7c-0.491 0.247-0.691 0.852-0.443 1.343l8.999 17.861c0.247 0.491 0.852 0.691 1.343 0.443l5.358-2.7c0.491-0.247 0.691-0.852 0.443-1.343l-8.999-17.861c-0.247-0.491-0.852-0.691-1.343-0.443z"></path>
</symbol>
<symbol id="icon-google" viewBox="0 0 32 32">
<path d="M16.319 13.713v5.487h9.075c-0.369 2.356-2.744 6.9-9.075 6.9-5.463 0-9.919-4.525-9.919-10.1s4.456-10.1 9.919-10.1c3.106 0 5.188 1.325 6.375 2.469l4.344-4.181c-2.788-2.612-6.4-4.188-10.719-4.188-8.844 0-16 7.156-16 16s7.156 16 16 16c9.231 0 15.363-6.494 15.363-15.631 0-1.050-0.113-1.85-0.25-2.65l-15.113-0.006z"></path>
</symbol>

<symbol id="icon-riangle" viewBox="0 0 14 32">
<path fill="#00a4e5" style="fill: var(--color1, #00a4e5)" d="M0.039 15.977l12.745-15.931v31.862l-12.745-15.931z"></path>
</symbol>
</defs>
</svg>
